<?xml version="1.0" encoding="UTF-8"?>
<svg id="Layer_2" data-name="Layer 2" xmlns="http://www.w3.org/2000/svg" viewBox="0 0 186.78 295.63">
  <g id="svg3010">
    <g>
      <rect x="93.39" y="248.96" width="15.56" height="31.11"/>
      <polygon points="77.83 248.96 93.38 248.96 93.38 233.4 93.38 217.84 77.83 217.84 77.83 248.96"/>
      <polygon points="186.78 202.28 186.78 171.16 171.22 171.16 171.22 155.6 155.65 155.6 155.65 140.04 140.09 140.04 140.09 124.48 124.52 124.48 124.52 108.92 108.96 108.92 108.96 93.36 93.39 93.36 93.39 77.8 77.83 77.8 77.83 62.24 62.26 62.24 62.26 46.68 46.7 46.68 46.7 31.12 31.13 31.12 31.13 15.56 15.57 15.56 15.57 0 0 0 0 264.51 31.13 264.51 31.13 248.96 46.7 248.96 46.7 233.4 62.26 233.4 62.26 217.84 77.82 217.84 77.82 202.28 62.25 202.28 62.25 217.84 46.69 217.84 46.69 233.4 31.12 233.4 31.12 248.96 15.56 248.96 15.56 31.12 31.12 31.12 31.12 46.68 46.69 46.68 46.69 62.24 62.25 62.24 62.25 77.8 77.82 77.8 77.82 93.36 93.38 93.36 93.38 108.92 108.95 108.92 108.95 124.48 124.51 124.48 124.51 140.04 140.08 140.04 140.08 155.6 155.64 155.6 155.64 171.16 171.21 171.16 171.21 186.72 155.64 186.72 140.08 186.72 124.51 186.72 108.95 186.72 108.95 202.28 108.95 217.84 124.51 217.84 124.51 233.4 124.51 248.96 140.08 248.96 140.08 280.07 108.96 280.07 108.96 295.63 140.09 295.63 140.09 280.07 155.65 280.07 155.65 248.96 140.09 248.96 140.09 217.84 124.52 217.84 124.52 202.28 186.78 202.28"/>
    </g>
  </g>
</svg>