<?xml version="1.0" encoding="utf-8"?>
<!-- Generator: Adobe Illustrator 27.2.0, SVG Export Plug-In . SVG Version: 6.00 Build 0)  -->
<svg version="1.1" id="Layer_1" xmlns="http://www.w3.org/2000/svg" xmlns:xlink="http://www.w3.org/1999/xlink" x="0px" y="0px"
	 viewBox="0 0 841.9 595.3" style="enable-background:new 0 0 841.9 595.3;" xml:space="preserve">
<g>
	<path d="M692.1,102.3h-72.7h-91.1c-43.4,52.3-51.6,62.4-51.6,62.4s-46.4,57.1-51.8,69.9c-0.3-12.8-20.2-70.6-20.2-70.6
		s-4.9-14.4-20.5-61.7H328H191.7H88.9l-10.3,44.4H156h18.4c49.8,0,80.2,20.6,71.7,57c-9.2,39.7-52.6,56.6-98.9,56.6h-17.3l22.3-97
		H74.8L41.9,305.1h109.8c82.6,0,161-44.4,175.2-101.4c2.5-10.5,2.1-36.8-4.2-52.3c0-0.4-0.4-1.1-0.7-2.2c-0.3-0.4-0.7-2.9,0.7-3.3
		c0.7-0.4,2.1,1.1,2.1,1.4c0,0,0.7,1.8,1.4,3.3l69.9,201.7l178-205.3l75.2-0.4h18.4c49.8,0,80.5,20.6,72,57
		c-9.2,39.7-52.9,56.6-99.2,56.6h-17.7l22.6-97h-77.3l-32.9,141.8h109.8c82.6,0,161.7-44.4,174.8-101.4
		C833.3,146.7,775.4,102.3,692.1,102.3z"/>
	<path d="M398.6,353.1c-209,0-378.5,24.5-378.5,54.9c0,30.3,169.5,54.8,378.5,54.8c209.4,0,378.9-24.5,378.9-54.8
		C777.5,377.6,608,353.1,398.6,353.1z M385.2,427.4c-48,0-86.5-8.3-86.5-18.4c0-10.1,38.5-18.4,86.5-18.4c47.7,0,86.2,8.3,86.2,18.4
		C471.4,419.1,432.8,427.4,385.2,427.4z"/>
</g>
</svg>
